<mxfile host="65bd71144e">
    <diagram name="第 1 页" id="fYMX9lc3rx7jabxPaHFg">
        <mxGraphModel dx="2081" dy="1211" grid="0" gridSize="10" guides="0" tooltips="1" connect="1" arrows="1" fold="1" page="0" pageScale="1" pageWidth="827" pageHeight="1169" background="#ffffff" math="0" shadow="0">
            <root>
                <mxCell id="0"/>
                <mxCell id="1" parent="0"/>
                <mxCell id="8wVM-hkC_UWg__VbqsbD-15" value="Input[Y1-Y6]" style="rounded=1;whiteSpace=wrap;html=1;labelBackgroundColor=none;fontFamily=Helvetica;fontSize=16;fontColor=#143642;fillColor=none;strokeColor=#0F8B8D;" parent="1" vertex="1">
                    <mxGeometry x="-217" y="-161" width="110" height="60" as="geometry"/>
                </mxCell>
                <mxCell id="8wVM-hkC_UWg__VbqsbD-16" value="" style="endArrow=classic;html=1;rounded=0;fontFamily=Helvetica;fontSize=16;fontColor=default;startSize=8;endSize=8;curved=1;labelBackgroundColor=none;strokeColor=#A8201A;" parent="1" target="8wVM-hkC_UWg__VbqsbD-26" edge="1">
                    <mxGeometry relative="1" as="geometry">
                        <mxPoint x="-106" y="-129" as="sourcePoint"/>
                        <mxPoint x="-4" y="-129" as="targetPoint"/>
                    </mxGeometry>
                </mxCell>
                <mxCell id="8wVM-hkC_UWg__VbqsbD-26" value="Embedding&amp;nbsp; Layer" style="rounded=0;whiteSpace=wrap;html=1;labelBackgroundColor=none;fontFamily=Helvetica;fontSize=16;fontColor=#143642;fillColor=none;strokeColor=#0F8B8D;" parent="1" vertex="1">
                    <mxGeometry x="55" y="-160" width="145" height="60" as="geometry"/>
                </mxCell>
                <mxCell id="8wVM-hkC_UWg__VbqsbD-32" value="" style="edgeStyle=none;curved=1;rounded=0;orthogonalLoop=1;jettySize=auto;html=1;fontFamily=Helvetica;fontSize=16;fontColor=default;startSize=8;endSize=8;labelBackgroundColor=none;strokeColor=#A8201A;exitX=0.5;exitY=1;exitDx=0;exitDy=0;entryX=0.25;entryY=0;entryDx=0;entryDy=0;" parent="1" source="8wVM-hkC_UWg__VbqsbD-26" edge="1" target="8wVM-hkC_UWg__VbqsbD-34">
                    <mxGeometry relative="1" as="geometry">
                        <mxPoint x="127" y="-38" as="targetPoint"/>
                        <mxPoint x="359.0353475845818" y="-102" as="sourcePoint"/>
                        <Array as="points"/>
                    </mxGeometry>
                </mxCell>
                <mxCell id="8wVM-hkC_UWg__VbqsbD-34" value="GRU" style="swimlane;whiteSpace=wrap;html=1;labelBackgroundColor=none;fontFamily=Helvetica;fontSize=16;fontColor=#143642;fillColor=none;strokeColor=#0F8B8D;" parent="1" vertex="1">
                    <mxGeometry x="-47" y="-38" width="686" height="352" as="geometry"/>
                </mxCell>
                <mxCell id="8wVM-hkC_UWg__VbqsbD-37" value="隐藏层" style="text;html=1;align=center;verticalAlign=middle;resizable=0;points=[];autosize=1;strokeColor=none;fillColor=none;fontSize=16;fontFamily=Helvetica;fontColor=#143642;labelBackgroundColor=none;" parent="8wVM-hkC_UWg__VbqsbD-34" vertex="1">
                    <mxGeometry x="2" y="206" width="66" height="31" as="geometry"/>
                </mxCell>
                <mxCell id="8wVM-hkC_UWg__VbqsbD-38" value="输出" style="text;html=1;align=center;verticalAlign=middle;resizable=0;points=[];autosize=1;strokeColor=none;fillColor=none;fontSize=16;fontFamily=Helvetica;fontColor=#143642;labelBackgroundColor=none;" parent="8wVM-hkC_UWg__VbqsbD-34" vertex="1">
                    <mxGeometry x="6" y="302" width="50" height="31" as="geometry"/>
                </mxCell>
                <mxCell id="8wVM-hkC_UWg__VbqsbD-36" value="输入" style="text;html=1;align=center;verticalAlign=middle;resizable=0;points=[];autosize=1;strokeColor=none;fillColor=none;fontSize=16;fontFamily=Helvetica;fontColor=#143642;labelBackgroundColor=none;" parent="8wVM-hkC_UWg__VbqsbD-34" vertex="1">
                    <mxGeometry x="5" y="71" width="50" height="31" as="geometry"/>
                </mxCell>
                <mxCell id="8wVM-hkC_UWg__VbqsbD-56" value="" style="swimlane;startSize=0;horizontal=1;childLayout=treeLayout;horizontalTree=0;resizable=0;containerType=tree;fontSize=12;labelBackgroundColor=none;fontFamily=Helvetica;fontColor=#143642;fillColor=none;html=1;labelBorderColor=#FFFFFF;strokeColor=none;" parent="8wVM-hkC_UWg__VbqsbD-34" vertex="1">
                    <mxGeometry x="189" y="11" width="175" height="163" as="geometry"/>
                </mxCell>
                <mxCell id="8wVM-hkC_UWg__VbqsbD-60" value="T2" style="whiteSpace=wrap;html=1;labelBackgroundColor=none;fontFamily=Helvetica;fontSize=16;fontColor=#143642;fillColor=none;strokeColor=#0F8B8D;" parent="8wVM-hkC_UWg__VbqsbD-56" vertex="1">
                    <mxGeometry x="20" y="110" width="39" height="33" as="geometry"/>
                </mxCell>
                <mxCell id="8wVM-hkC_UWg__VbqsbD-65" value="T3" style="whiteSpace=wrap;html=1;labelBackgroundColor=none;fontFamily=Helvetica;fontSize=16;fontColor=#143642;fillColor=none;strokeColor=#0F8B8D;" parent="8wVM-hkC_UWg__VbqsbD-56" vertex="1">
                    <mxGeometry x="99" y="110" width="56" height="31" as="geometry"/>
                </mxCell>
                <mxCell id="8wVM-hkC_UWg__VbqsbD-85" value="" style="line;strokeWidth=1;rotatable=0;dashed=0;labelPosition=right;align=left;verticalAlign=middle;spacingTop=0;spacingLeft=6;points=[];portConstraint=eastwest;labelBackgroundColor=none;fontFamily=Helvetica;fontSize=16;fontColor=#143642;fillColor=none;html=1;strokeColor=#0F8B8D;" parent="8wVM-hkC_UWg__VbqsbD-34" vertex="1">
                    <mxGeometry x="83" y="219" width="601" height="10" as="geometry"/>
                </mxCell>
                <mxCell id="8wVM-hkC_UWg__VbqsbD-82" value="Φ" style="rounded=0;whiteSpace=wrap;html=1;labelBackgroundColor=none;fontFamily=Helvetica;fontSize=16;fillColor=#FAE5C7;strokeColor=#0F8B8D;fontColor=#143642;" parent="8wVM-hkC_UWg__VbqsbD-34" vertex="1">
                    <mxGeometry x="145" y="210" width="44" height="27" as="geometry"/>
                </mxCell>
                <mxCell id="8wVM-hkC_UWg__VbqsbD-58" value="T1" style="whiteSpace=wrap;html=1;labelBackgroundColor=none;fontFamily=Helvetica;fontSize=16;fontColor=#143642;fillColor=none;strokeColor=#0F8B8D;" parent="8wVM-hkC_UWg__VbqsbD-34" vertex="1">
                    <mxGeometry x="108" y="122" width="34" height="31" as="geometry"/>
                </mxCell>
                <mxCell id="8wVM-hkC_UWg__VbqsbD-71" style="edgeStyle=none;curved=1;rounded=0;orthogonalLoop=1;jettySize=auto;html=1;exitX=1;exitY=1;exitDx=0;exitDy=0;fontFamily=Helvetica;fontSize=16;fontColor=default;startSize=8;endSize=8;labelBackgroundColor=none;strokeColor=#A8201A;" parent="8wVM-hkC_UWg__VbqsbD-34" source="8wVM-hkC_UWg__VbqsbD-58" target="8wVM-hkC_UWg__VbqsbD-58" edge="1">
                    <mxGeometry relative="1" as="geometry"/>
                </mxCell>
                <mxCell id="8wVM-hkC_UWg__VbqsbD-59" value="" style="edgeStyle=elbowEdgeStyle;elbow=vertical;html=1;rounded=1;curved=0;sourcePerimeterSpacing=0;targetPerimeterSpacing=0;startSize=6;endSize=6;fontFamily=Helvetica;fontSize=16;fontColor=default;labelBackgroundColor=none;strokeColor=#A8201A;" parent="8wVM-hkC_UWg__VbqsbD-34" source="8wVM-hkC_UWg__VbqsbD-57" target="8wVM-hkC_UWg__VbqsbD-58" edge="1">
                    <mxGeometry relative="1" as="geometry"/>
                </mxCell>
                <mxCell id="8wVM-hkC_UWg__VbqsbD-92" value="" style="edgeStyle=elbowEdgeStyle;elbow=horizontal;endArrow=classic;html=1;rounded=1;endSize=8;startSize=8;fontFamily=Helvetica;fontSize=16;fontColor=default;exitX=0;exitY=1;exitDx=0;exitDy=0;labelBackgroundColor=none;strokeColor=#A8201A;" parent="8wVM-hkC_UWg__VbqsbD-34" source="8wVM-hkC_UWg__VbqsbD-58" edge="1">
                    <mxGeometry width="50" height="50" relative="1" as="geometry">
                        <mxPoint x="105" y="164" as="sourcePoint"/>
                        <mxPoint x="146" y="224" as="targetPoint"/>
                        <Array as="points">
                            <mxPoint x="121" y="184"/>
                        </Array>
                    </mxGeometry>
                </mxCell>
                <mxCell id="8wVM-hkC_UWg__VbqsbD-95" value="" style="edgeStyle=elbowEdgeStyle;elbow=horizontal;endArrow=classic;html=1;rounded=1;endSize=8;startSize=8;fontFamily=Helvetica;fontSize=16;fontColor=default;labelBackgroundColor=none;strokeColor=#A8201A;" parent="8wVM-hkC_UWg__VbqsbD-34" edge="1">
                    <mxGeometry width="50" height="50" relative="1" as="geometry">
                        <mxPoint x="190" y="225" as="sourcePoint"/>
                        <mxPoint x="160" y="312" as="targetPoint"/>
                        <Array as="points">
                            <mxPoint x="213" y="272"/>
                        </Array>
                    </mxGeometry>
                </mxCell>
                <mxCell id="8wVM-hkC_UWg__VbqsbD-96" value="T2'" style="rounded=0;whiteSpace=wrap;html=1;labelBackgroundColor=none;fontFamily=Helvetica;fontSize=16;fontColor=#143642;fillColor=none;strokeColor=#0F8B8D;" parent="8wVM-hkC_UWg__VbqsbD-34" vertex="1">
                    <mxGeometry x="115" y="300" width="45" height="28" as="geometry"/>
                </mxCell>
                <mxCell id="8wVM-hkC_UWg__VbqsbD-102" value="Φ" style="rounded=0;whiteSpace=wrap;html=1;labelBackgroundColor=none;fontFamily=Helvetica;fontSize=16;fillColor=#FAE5C7;strokeColor=#0F8B8D;fontColor=#143642;" parent="8wVM-hkC_UWg__VbqsbD-34" vertex="1">
                    <mxGeometry x="255" y="211" width="44" height="27" as="geometry"/>
                </mxCell>
                <mxCell id="8wVM-hkC_UWg__VbqsbD-103" style="edgeStyle=none;curved=1;rounded=0;orthogonalLoop=1;jettySize=auto;html=1;exitX=1;exitY=1;exitDx=0;exitDy=0;fontFamily=Helvetica;fontSize=16;fontColor=default;startSize=8;endSize=8;labelBackgroundColor=none;strokeColor=#A8201A;" parent="8wVM-hkC_UWg__VbqsbD-34" edge="1">
                    <mxGeometry relative="1" as="geometry">
                        <mxPoint x="252" y="154" as="sourcePoint"/>
                        <mxPoint x="252" y="154" as="targetPoint"/>
                    </mxGeometry>
                </mxCell>
                <mxCell id="8wVM-hkC_UWg__VbqsbD-104" value="" style="edgeStyle=elbowEdgeStyle;elbow=horizontal;endArrow=classic;html=1;rounded=1;endSize=8;startSize=8;fontFamily=Helvetica;fontSize=16;fontColor=default;exitX=0;exitY=1;exitDx=0;exitDy=0;entryX=0.123;entryY=0.48;entryDx=0;entryDy=0;entryPerimeter=0;labelBackgroundColor=none;strokeColor=#A8201A;" parent="8wVM-hkC_UWg__VbqsbD-34" edge="1">
                    <mxGeometry width="50" height="50" relative="1" as="geometry">
                        <mxPoint x="218" y="154" as="sourcePoint"/>
                        <mxPoint x="255" y="225" as="targetPoint"/>
                        <Array as="points">
                            <mxPoint x="231" y="185"/>
                        </Array>
                    </mxGeometry>
                </mxCell>
                <mxCell id="8wVM-hkC_UWg__VbqsbD-105" value="" style="edgeStyle=elbowEdgeStyle;elbow=horizontal;endArrow=classic;html=1;rounded=1;endSize=8;startSize=8;fontFamily=Helvetica;fontSize=16;fontColor=default;labelBackgroundColor=none;strokeColor=#A8201A;" parent="8wVM-hkC_UWg__VbqsbD-34" edge="1">
                    <mxGeometry width="50" height="50" relative="1" as="geometry">
                        <mxPoint x="294" y="225" as="sourcePoint"/>
                        <mxPoint x="264" y="312" as="targetPoint"/>
                        <Array as="points">
                            <mxPoint x="317" y="272"/>
                        </Array>
                    </mxGeometry>
                </mxCell>
                <mxCell id="8wVM-hkC_UWg__VbqsbD-106" value="T3'" style="rounded=0;whiteSpace=wrap;html=1;labelBackgroundColor=none;fontFamily=Helvetica;fontSize=16;fontColor=#143642;fillColor=none;strokeColor=#0F8B8D;" parent="8wVM-hkC_UWg__VbqsbD-34" vertex="1">
                    <mxGeometry x="219" y="299" width="45" height="28" as="geometry"/>
                </mxCell>
                <mxCell id="8wVM-hkC_UWg__VbqsbD-110" value="Φ" style="rounded=0;whiteSpace=wrap;html=1;labelBackgroundColor=none;fontFamily=Helvetica;fontSize=16;fillColor=#FAE5C7;strokeColor=#0F8B8D;fontColor=#143642;" parent="8wVM-hkC_UWg__VbqsbD-34" vertex="1">
                    <mxGeometry x="359" y="210" width="44" height="27" as="geometry"/>
                </mxCell>
                <mxCell id="8wVM-hkC_UWg__VbqsbD-111" style="edgeStyle=none;curved=1;rounded=0;orthogonalLoop=1;jettySize=auto;html=1;exitX=1;exitY=1;exitDx=0;exitDy=0;fontFamily=Helvetica;fontSize=16;fontColor=default;startSize=8;endSize=8;labelBackgroundColor=none;strokeColor=#A8201A;" parent="8wVM-hkC_UWg__VbqsbD-34" edge="1">
                    <mxGeometry relative="1" as="geometry">
                        <mxPoint x="356" y="153" as="sourcePoint"/>
                        <mxPoint x="356" y="153" as="targetPoint"/>
                    </mxGeometry>
                </mxCell>
                <mxCell id="8wVM-hkC_UWg__VbqsbD-112" value="" style="edgeStyle=elbowEdgeStyle;elbow=horizontal;endArrow=classic;html=1;rounded=1;endSize=8;startSize=8;fontFamily=Helvetica;fontSize=16;fontColor=default;exitX=0;exitY=1;exitDx=0;exitDy=0;entryX=0.123;entryY=0.48;entryDx=0;entryDy=0;entryPerimeter=0;labelBackgroundColor=none;strokeColor=#A8201A;" parent="8wVM-hkC_UWg__VbqsbD-34" edge="1">
                    <mxGeometry width="50" height="50" relative="1" as="geometry">
                        <mxPoint x="322" y="153" as="sourcePoint"/>
                        <mxPoint x="359" y="224" as="targetPoint"/>
                        <Array as="points">
                            <mxPoint x="335" y="184"/>
                        </Array>
                    </mxGeometry>
                </mxCell>
                <mxCell id="8wVM-hkC_UWg__VbqsbD-113" value="" style="edgeStyle=elbowEdgeStyle;elbow=horizontal;endArrow=classic;html=1;rounded=1;endSize=8;startSize=8;fontFamily=Helvetica;fontSize=16;fontColor=default;labelBackgroundColor=none;strokeColor=#A8201A;" parent="8wVM-hkC_UWg__VbqsbD-34" edge="1">
                    <mxGeometry width="50" height="50" relative="1" as="geometry">
                        <mxPoint x="404" y="225" as="sourcePoint"/>
                        <mxPoint x="374" y="312" as="targetPoint"/>
                        <Array as="points">
                            <mxPoint x="427" y="272"/>
                        </Array>
                    </mxGeometry>
                </mxCell>
                <mxCell id="8wVM-hkC_UWg__VbqsbD-114" value="T4'" style="rounded=0;whiteSpace=wrap;html=1;labelBackgroundColor=none;fontFamily=Helvetica;fontSize=16;fontColor=#143642;fillColor=none;strokeColor=#0F8B8D;" parent="8wVM-hkC_UWg__VbqsbD-34" vertex="1">
                    <mxGeometry x="329" y="300" width="45" height="28" as="geometry"/>
                </mxCell>
                <mxCell id="8wVM-hkC_UWg__VbqsbD-125" value="Φ" style="rounded=0;whiteSpace=wrap;html=1;labelBackgroundColor=none;fontFamily=Helvetica;fontSize=16;fillColor=#FAE5C7;strokeColor=#0F8B8D;fontColor=#143642;" parent="8wVM-hkC_UWg__VbqsbD-34" vertex="1">
                    <mxGeometry x="471" y="210" width="44" height="27" as="geometry"/>
                </mxCell>
                <mxCell id="8wVM-hkC_UWg__VbqsbD-126" style="edgeStyle=none;curved=1;rounded=0;orthogonalLoop=1;jettySize=auto;html=1;exitX=1;exitY=1;exitDx=0;exitDy=0;fontFamily=Helvetica;fontSize=16;fontColor=default;startSize=8;endSize=8;labelBackgroundColor=none;strokeColor=#A8201A;" parent="8wVM-hkC_UWg__VbqsbD-34" edge="1">
                    <mxGeometry relative="1" as="geometry">
                        <mxPoint x="468" y="153" as="sourcePoint"/>
                        <mxPoint x="468" y="153" as="targetPoint"/>
                    </mxGeometry>
                </mxCell>
                <mxCell id="8wVM-hkC_UWg__VbqsbD-127" value="" style="edgeStyle=elbowEdgeStyle;elbow=horizontal;endArrow=classic;html=1;rounded=1;endSize=8;startSize=8;fontFamily=Helvetica;fontSize=16;fontColor=default;exitX=0;exitY=1;exitDx=0;exitDy=0;entryX=0.123;entryY=0.48;entryDx=0;entryDy=0;entryPerimeter=0;labelBackgroundColor=none;strokeColor=#A8201A;" parent="8wVM-hkC_UWg__VbqsbD-34" edge="1">
                    <mxGeometry width="50" height="50" relative="1" as="geometry">
                        <mxPoint x="434" y="153" as="sourcePoint"/>
                        <mxPoint x="471" y="224" as="targetPoint"/>
                        <Array as="points">
                            <mxPoint x="447" y="184"/>
                        </Array>
                    </mxGeometry>
                </mxCell>
                <mxCell id="8wVM-hkC_UWg__VbqsbD-128" value="" style="edgeStyle=elbowEdgeStyle;elbow=horizontal;endArrow=classic;html=1;rounded=1;endSize=8;startSize=8;fontFamily=Helvetica;fontSize=16;fontColor=default;labelBackgroundColor=none;strokeColor=#A8201A;" parent="8wVM-hkC_UWg__VbqsbD-34" edge="1">
                    <mxGeometry width="50" height="50" relative="1" as="geometry">
                        <mxPoint x="516" y="225" as="sourcePoint"/>
                        <mxPoint x="486" y="312" as="targetPoint"/>
                        <Array as="points">
                            <mxPoint x="539" y="272"/>
                        </Array>
                    </mxGeometry>
                </mxCell>
                <mxCell id="8wVM-hkC_UWg__VbqsbD-129" value="T5'" style="rounded=0;whiteSpace=wrap;html=1;labelBackgroundColor=none;fontFamily=Helvetica;fontSize=16;fontColor=#143642;fillColor=none;strokeColor=#0F8B8D;" parent="8wVM-hkC_UWg__VbqsbD-34" vertex="1">
                    <mxGeometry x="441" y="300" width="45" height="28" as="geometry"/>
                </mxCell>
                <mxCell id="8wVM-hkC_UWg__VbqsbD-130" value="Φ" style="rounded=0;whiteSpace=wrap;html=1;labelBackgroundColor=none;fontFamily=Helvetica;fontSize=16;fillColor=#FAE5C7;strokeColor=#0F8B8D;fontColor=#143642;" parent="8wVM-hkC_UWg__VbqsbD-34" vertex="1">
                    <mxGeometry x="585" y="211" width="44" height="27" as="geometry"/>
                </mxCell>
                <mxCell id="8wVM-hkC_UWg__VbqsbD-131" style="edgeStyle=none;curved=1;rounded=0;orthogonalLoop=1;jettySize=auto;html=1;exitX=1;exitY=1;exitDx=0;exitDy=0;fontFamily=Helvetica;fontSize=16;fontColor=default;startSize=8;endSize=8;labelBackgroundColor=none;strokeColor=#A8201A;" parent="8wVM-hkC_UWg__VbqsbD-34" edge="1">
                    <mxGeometry relative="1" as="geometry">
                        <mxPoint x="582" y="154" as="sourcePoint"/>
                        <mxPoint x="582" y="154" as="targetPoint"/>
                    </mxGeometry>
                </mxCell>
                <mxCell id="8wVM-hkC_UWg__VbqsbD-132" value="" style="edgeStyle=elbowEdgeStyle;elbow=horizontal;endArrow=classic;html=1;rounded=1;endSize=8;startSize=8;fontFamily=Helvetica;fontSize=16;fontColor=default;exitX=0;exitY=1;exitDx=0;exitDy=0;entryX=0.123;entryY=0.48;entryDx=0;entryDy=0;entryPerimeter=0;labelBackgroundColor=none;strokeColor=#A8201A;" parent="8wVM-hkC_UWg__VbqsbD-34" edge="1">
                    <mxGeometry width="50" height="50" relative="1" as="geometry">
                        <mxPoint x="548" y="154" as="sourcePoint"/>
                        <mxPoint x="585" y="225" as="targetPoint"/>
                        <Array as="points">
                            <mxPoint x="561" y="185"/>
                        </Array>
                    </mxGeometry>
                </mxCell>
                <mxCell id="8wVM-hkC_UWg__VbqsbD-133" value="" style="edgeStyle=elbowEdgeStyle;elbow=horizontal;endArrow=classic;html=1;rounded=1;endSize=8;startSize=8;fontFamily=Helvetica;fontSize=16;fontColor=default;labelBackgroundColor=none;strokeColor=#A8201A;" parent="8wVM-hkC_UWg__VbqsbD-34" edge="1">
                    <mxGeometry width="50" height="50" relative="1" as="geometry">
                        <mxPoint x="631" y="224" as="sourcePoint"/>
                        <mxPoint x="600" y="313" as="targetPoint"/>
                        <Array as="points">
                            <mxPoint x="653" y="273"/>
                        </Array>
                    </mxGeometry>
                </mxCell>
                <mxCell id="8wVM-hkC_UWg__VbqsbD-134" value="T6'" style="rounded=0;whiteSpace=wrap;html=1;labelBackgroundColor=none;fontFamily=Helvetica;fontSize=16;fontColor=#143642;fillColor=none;strokeColor=#0F8B8D;" parent="8wVM-hkC_UWg__VbqsbD-34" vertex="1">
                    <mxGeometry x="555" y="301" width="45" height="28" as="geometry"/>
                </mxCell>
                <mxCell id="8wVM-hkC_UWg__VbqsbD-70" value="T5" style="whiteSpace=wrap;html=1;labelBackgroundColor=none;fontFamily=Helvetica;fontSize=16;fontColor=#143642;fillColor=none;strokeColor=#0F8B8D;" parent="8wVM-hkC_UWg__VbqsbD-34" vertex="1">
                    <mxGeometry x="532" y="123" width="36" height="31" as="geometry"/>
                </mxCell>
                <mxCell id="8wVM-hkC_UWg__VbqsbD-69" value="" style="edgeStyle=elbowEdgeStyle;elbow=vertical;html=1;rounded=1;curved=0;sourcePerimeterSpacing=0;targetPerimeterSpacing=0;startSize=6;endSize=6;fontFamily=Helvetica;fontSize=16;fontColor=default;labelBackgroundColor=none;strokeColor=#A8201A;" parent="8wVM-hkC_UWg__VbqsbD-34" source="8wVM-hkC_UWg__VbqsbD-57" target="8wVM-hkC_UWg__VbqsbD-70" edge="1">
                    <mxGeometry relative="1" as="geometry">
                        <mxPoint x="-126" y="42" as="sourcePoint"/>
                    </mxGeometry>
                </mxCell>
                <mxCell id="8wVM-hkC_UWg__VbqsbD-67" value="T4" style="whiteSpace=wrap;html=1;labelBackgroundColor=none;fontFamily=Helvetica;fontSize=16;fontColor=#143642;fillColor=none;strokeColor=#0F8B8D;" parent="8wVM-hkC_UWg__VbqsbD-34" vertex="1">
                    <mxGeometry x="424" y="123" width="33" height="30" as="geometry"/>
                </mxCell>
                <mxCell id="8wVM-hkC_UWg__VbqsbD-66" value="" style="edgeStyle=elbowEdgeStyle;elbow=vertical;html=1;rounded=1;curved=0;sourcePerimeterSpacing=0;targetPerimeterSpacing=0;startSize=6;endSize=6;fontFamily=Helvetica;fontSize=16;fontColor=default;labelBackgroundColor=none;strokeColor=#A8201A;" parent="8wVM-hkC_UWg__VbqsbD-34" source="8wVM-hkC_UWg__VbqsbD-57" target="8wVM-hkC_UWg__VbqsbD-67" edge="1">
                    <mxGeometry relative="1" as="geometry">
                        <mxPoint x="-173.5" y="175" as="sourcePoint"/>
                    </mxGeometry>
                </mxCell>
                <mxCell id="8wVM-hkC_UWg__VbqsbD-146" value="" style="rounded=1;whiteSpace=wrap;html=1;labelBackgroundColor=none;fontFamily=Helvetica;fontSize=16;fontColor=#143642;fillColor=none;strokeColor=#0F8B8D;" parent="8wVM-hkC_UWg__VbqsbD-34" vertex="1">
                    <mxGeometry x="91" y="190" width="578" height="72" as="geometry"/>
                </mxCell>
                <mxCell id="8wVM-hkC_UWg__VbqsbD-149" value="h1" style="text;html=1;strokeColor=none;fillColor=none;align=center;verticalAlign=middle;whiteSpace=wrap;rounded=0;fontSize=16;fontFamily=Helvetica;fontColor=#143642;labelBackgroundColor=none;" parent="8wVM-hkC_UWg__VbqsbD-34" vertex="1">
                    <mxGeometry x="178" y="192" width="60" height="30" as="geometry"/>
                </mxCell>
                <mxCell id="8wVM-hkC_UWg__VbqsbD-155" value="h2" style="text;html=1;strokeColor=none;fillColor=none;align=center;verticalAlign=middle;whiteSpace=wrap;rounded=0;fontSize=16;fontFamily=Helvetica;fontColor=#143642;labelBackgroundColor=none;" parent="8wVM-hkC_UWg__VbqsbD-34" vertex="1">
                    <mxGeometry x="291" y="195" width="60" height="30" as="geometry"/>
                </mxCell>
                <mxCell id="8wVM-hkC_UWg__VbqsbD-156" value="h3" style="text;html=1;strokeColor=none;fillColor=none;align=center;verticalAlign=middle;whiteSpace=wrap;rounded=0;fontSize=16;fontFamily=Helvetica;fontColor=#143642;labelBackgroundColor=none;" parent="8wVM-hkC_UWg__VbqsbD-34" vertex="1">
                    <mxGeometry x="401" y="195" width="60" height="34" as="geometry"/>
                </mxCell>
                <mxCell id="8wVM-hkC_UWg__VbqsbD-157" value="h4" style="text;html=1;strokeColor=none;fillColor=none;align=center;verticalAlign=middle;whiteSpace=wrap;rounded=0;fontSize=16;fontFamily=Helvetica;fontColor=#143642;labelBackgroundColor=none;" parent="8wVM-hkC_UWg__VbqsbD-34" vertex="1">
                    <mxGeometry x="516" y="198" width="60" height="30" as="geometry"/>
                </mxCell>
                <mxCell id="8wVM-hkC_UWg__VbqsbD-158" value="h5" style="text;html=1;strokeColor=#000000;fillColor=none;align=center;verticalAlign=middle;whiteSpace=wrap;rounded=0;fontSize=16;fontFamily=Helvetica;fontColor=#143642;labelBackgroundColor=none;" parent="8wVM-hkC_UWg__VbqsbD-34" vertex="1">
                    <mxGeometry x="618" y="195" width="60" height="33" as="geometry"/>
                </mxCell>
                <mxCell id="8wVM-hkC_UWg__VbqsbD-57" value="input_emb" style="whiteSpace=wrap;html=1;labelBackgroundColor=none;fontFamily=Helvetica;fontSize=16;fontColor=#143642;fillColor=none;strokeColor=#0F8B8D;" parent="8wVM-hkC_UWg__VbqsbD-34" vertex="1">
                    <mxGeometry x="301" y="29" width="100" height="40" as="geometry"/>
                </mxCell>
                <mxCell id="8wVM-hkC_UWg__VbqsbD-61" value="" style="edgeStyle=elbowEdgeStyle;elbow=vertical;html=1;rounded=1;curved=0;sourcePerimeterSpacing=0;targetPerimeterSpacing=0;startSize=6;endSize=6;fontFamily=Helvetica;fontSize=16;fontColor=default;labelBackgroundColor=none;strokeColor=#A8201A;" parent="8wVM-hkC_UWg__VbqsbD-34" source="8wVM-hkC_UWg__VbqsbD-57" target="8wVM-hkC_UWg__VbqsbD-60" edge="1">
                    <mxGeometry relative="1" as="geometry"/>
                </mxCell>
                <mxCell id="8wVM-hkC_UWg__VbqsbD-64" value="" style="edgeStyle=elbowEdgeStyle;elbow=vertical;html=1;rounded=1;curved=0;sourcePerimeterSpacing=0;targetPerimeterSpacing=0;startSize=6;endSize=6;fontFamily=Helvetica;fontSize=16;fontColor=default;labelBackgroundColor=none;strokeColor=#A8201A;" parent="8wVM-hkC_UWg__VbqsbD-34" source="8wVM-hkC_UWg__VbqsbD-57" target="8wVM-hkC_UWg__VbqsbD-65" edge="1">
                    <mxGeometry relative="1" as="geometry">
                        <mxPoint x="-329.25" y="175" as="sourcePoint"/>
                    </mxGeometry>
                </mxCell>
                <mxCell id="8wVM-hkC_UWg__VbqsbD-172" value="&lt;font color=&quot;#000000&quot;&gt;Model Framework&lt;br&gt;&lt;/font&gt;" style="swimlane;whiteSpace=wrap;html=1;labelBackgroundColor=none;fontFamily=Helvetica;fontSize=16;fontColor=#143642;fillColor=none;startSize=41;rounded=0;glass=0;strokeColor=#000000;" parent="1" vertex="1">
                    <mxGeometry x="-239" y="-239" width="1266" height="750" as="geometry"/>
                </mxCell>
                <mxCell id="10" value="" style="edgeStyle=none;html=1;fontSize=18;fontColor=#0000CC;" parent="8wVM-hkC_UWg__VbqsbD-172" source="4" target="9" edge="1">
                    <mxGeometry relative="1" as="geometry"/>
                </mxCell>
                <mxCell id="4" value="sigmod" style="text;html=1;strokeColor=#000000;fillColor=none;align=center;verticalAlign=middle;whiteSpace=wrap;rounded=0;fontSize=16;fontFamily=Helvetica;fontColor=#143642;labelBackgroundColor=none;" parent="8wVM-hkC_UWg__VbqsbD-172" vertex="1">
                    <mxGeometry x="990" y="406" width="134" height="57" as="geometry"/>
                </mxCell>
                <mxCell id="9" value="* Y6" style="text;html=1;strokeColor=none;fillColor=none;align=center;verticalAlign=middle;whiteSpace=wrap;rounded=0;fontSize=16;fontFamily=Helvetica;fontColor=#143642;labelBackgroundColor=none;" parent="8wVM-hkC_UWg__VbqsbD-172" vertex="1">
                    <mxGeometry x="904" y="381" width="60" height="30" as="geometry"/>
                </mxCell>
                <mxCell id="11" value="" style="edgeStyle=none;curved=1;rounded=0;orthogonalLoop=1;jettySize=auto;html=1;fontFamily=Helvetica;fontSize=16;fontColor=default;startSize=8;endSize=8;labelBackgroundColor=none;strokeColor=#A8201A;" parent="8wVM-hkC_UWg__VbqsbD-172" edge="1">
                    <mxGeometry relative="1" as="geometry">
                        <mxPoint x="1124" y="436.9995744680849" as="sourcePoint"/>
                        <mxPoint x="1188" y="437.34000000000003" as="targetPoint"/>
                    </mxGeometry>
                </mxCell>
                <mxCell id="13" value="T7'" style="rounded=0;whiteSpace=wrap;html=1;labelBackgroundColor=none;fontFamily=Helvetica;fontSize=16;fontColor=#143642;fillColor=none;strokeColor=#0F8B8D;" parent="8wVM-hkC_UWg__VbqsbD-172" vertex="1">
                    <mxGeometry x="1189" y="425" width="45" height="28" as="geometry"/>
                </mxCell>
                <mxCell id="18" value="output" style="rounded=1;whiteSpace=wrap;html=1;labelBackgroundColor=none;fontFamily=Helvetica;fontSize=16;fontColor=#143642;fillColor=none;strokeColor=#0F8B8D;" parent="8wVM-hkC_UWg__VbqsbD-172" vertex="1">
                    <mxGeometry x="1003" y="649" width="110" height="60" as="geometry"/>
                </mxCell>
                <mxCell id="19" value="" style="edgeStyle=elbowEdgeStyle;elbow=horizontal;endArrow=classic;html=1;rounded=1;endSize=8;startSize=8;fontFamily=Helvetica;fontSize=16;fontColor=default;labelBackgroundColor=none;strokeColor=#A8201A;exitX=0.5;exitY=1;exitDx=0;exitDy=0;entryX=1;entryY=0.5;entryDx=0;entryDy=0;" parent="8wVM-hkC_UWg__VbqsbD-172" source="13" target="18" edge="1">
                    <mxGeometry width="50" height="50" relative="1" as="geometry">
                        <mxPoint x="1186" y="587" as="sourcePoint"/>
                        <mxPoint x="1159" y="678" as="targetPoint"/>
                        <Array as="points">
                            <mxPoint x="1212" y="638"/>
                        </Array>
                    </mxGeometry>
                </mxCell>
                <mxCell id="20" value="Linear" style="rounded=0;whiteSpace=wrap;html=1;labelBackgroundColor=none;fontFamily=Helvetica;fontSize=16;fontColor=#143642;fillColor=none;strokeColor=#0F8B8D;" vertex="1" parent="8wVM-hkC_UWg__VbqsbD-172">
                    <mxGeometry x="697" y="650" width="145" height="60" as="geometry"/>
                </mxCell>
                <mxCell id="23" value="" style="edgeStyle=none;curved=1;rounded=0;orthogonalLoop=1;jettySize=auto;html=1;fontFamily=Helvetica;fontSize=16;fontColor=default;startSize=8;endSize=8;labelBackgroundColor=none;strokeColor=#A8201A;exitX=1;exitY=0.5;exitDx=0;exitDy=0;entryX=0;entryY=0.5;entryDx=0;entryDy=0;" edge="1" parent="8wVM-hkC_UWg__VbqsbD-172" source="20" target="18">
                    <mxGeometry relative="1" as="geometry">
                        <mxPoint x="916" y="780" as="targetPoint"/>
                        <mxPoint x="902" y="680" as="sourcePoint"/>
                        <Array as="points"/>
                    </mxGeometry>
                </mxCell>
                <mxCell id="8wVM-hkC_UWg__VbqsbD-171" value="" style="edgeStyle=none;curved=1;rounded=0;orthogonalLoop=1;jettySize=auto;html=1;fontFamily=Helvetica;fontSize=16;fontColor=default;startSize=8;endSize=8;labelBackgroundColor=none;strokeColor=#A8201A;entryX=0;entryY=0.25;entryDx=0;entryDy=0;" parent="1" source="8wVM-hkC_UWg__VbqsbD-158" edge="1" target="4">
                    <mxGeometry relative="1" as="geometry">
                        <mxPoint x="788" y="176.21785522788207" as="sourcePoint"/>
                        <mxPoint x="846" y="174" as="targetPoint"/>
                    </mxGeometry>
                </mxCell>
                <mxCell id="22" value="" style="edgeStyle=none;curved=1;rounded=0;orthogonalLoop=1;jettySize=auto;html=1;fontFamily=Helvetica;fontSize=16;fontColor=default;startSize=8;endSize=8;labelBackgroundColor=none;strokeColor=#A8201A;entryX=0.5;entryY=0;entryDx=0;entryDy=0;exitX=0.5;exitY=1;exitDx=0;exitDy=0;" edge="1" parent="1" source="8wVM-hkC_UWg__VbqsbD-134" target="20">
                    <mxGeometry relative="1" as="geometry">
                        <mxPoint x="679" y="353" as="targetPoint"/>
                        <mxPoint x="685" y="291" as="sourcePoint"/>
                        <Array as="points"/>
                    </mxGeometry>
                </mxCell>
            </root>
        </mxGraphModel>
    </diagram>
</mxfile>